# xmcd
#
# Track frame offsets:
#	182
#	16535
#	31220
#	45222
#	64210
#	80437
#	95640
#	109752
#	122435
#	136392
#	155217
#	170942
#
# Disc length: 2520 seconds
#
# Revision: 1
# Processed by: cddbd v1.5.2PL0 Copyright (c) Steve Scherf et al.
# Submitted via: dBpowerAMP V4.0
#
DISCID=9609d60c
DTITLE=Tom Jones - Country Memories
DYEAR=1994
DGENRE=Country
TTITLE0=Touch Me (Then I'll Be Your Fool Once More)
TTITLE1=Darlin'
TTITLE2=Green Green Grass Of Home
TTITLE3=It's Four In The Morning
TTITLE4=Detroit City
TTITLE5=He'll Have To Go
TTITLE6=Sixteen Tons
TTITLE7=What In The World's Come Over You
TTITLE8=Ghost Riders In The Sky
TTITLE9=Cool Water
TTITLE10=Lady Lay Down
TTITLE11=A Woman's Touch
EXTD=
EXTT0=
EXTT1=
EXTT2=
EXTT3=
EXTT4=
EXTT5=
EXTT6=
EXTT7=
EXTT8=
EXTT9=
EXTT10=
EXTT11=
PLAYORDER=
